<svg width="213" height="33" viewBox="0 0 213 33" fill="none" xmlns="http://www.w3.org/2000/svg">
<path d="M9.72005 3.4C11.2134 3.4 12.5601 3.54666 13.7601 3.84C14.9867 4.10666 16.1067 4.49333 17.1201 5L16.0001 8.76C14.9067 8.22666 13.8667 7.82666 12.8801 7.56C11.8934 7.29333 10.9201 7.16 9.96005 7.16C8.60005 7.16 7.53339 7.44 6.76005 8C6.01339 8.56 5.64005 9.32 5.64005 10.28C5.64005 11.2133 5.94672 11.9333 6.56005 12.44C7.20005 12.92 8.21339 13.3867 9.60005 13.84L12.0401 14.64C14.1201 15.3333 15.7067 16.2933 16.8001 17.52C17.8934 18.7467 18.4401 20.2 18.4401 21.88C18.4401 22.9733 18.2267 23.9733 17.8001 24.88C17.3734 25.7867 16.7601 26.5867 15.9601 27.28C15.1601 27.9467 14.1734 28.4667 13.0001 28.84C11.8534 29.2133 10.5467 29.4 9.08005 29.4C7.64005 29.4 6.24005 29.2667 4.88005 29C3.52005 28.7067 2.21339 28.2533 0.960054 27.64L2.08005 23.92C3.22672 24.48 4.34672 24.9067 5.44005 25.2C6.53339 25.4933 7.68005 25.64 8.88005 25.64C10.3201 25.64 11.4401 25.36 12.2401 24.8C13.0667 24.24 13.4801 23.4267 13.4801 22.36C13.4801 21.9867 13.4134 21.6267 13.2801 21.28C13.1467 20.9333 12.9067 20.6133 12.5601 20.32C12.2401 20 11.7867 19.7067 11.2001 19.44C10.6401 19.1467 9.90672 18.8533 9.00005 18.56L6.76005 17.8C4.92005 17.16 3.44005 16.32 2.32005 15.28C1.22672 14.2133 0.680054 12.72 0.680054 10.8C0.680054 8.58666 1.45339 6.8 3.00005 5.44C4.54672 4.08 6.78672 3.4 9.72005 3.4Z" fill="#94A3B8"/>
<path d="M29.8594 13.44H24.6194V22.96C24.6194 23.8667 24.8328 24.4933 25.2594 24.84C25.7128 25.16 26.2861 25.32 26.9794 25.32C27.5128 25.32 28.0728 25.2667 28.6594 25.16C29.2461 25.0533 29.7394 24.9067 30.1394 24.72L30.8594 28.08C30.3528 28.2933 29.6594 28.5067 28.7794 28.72C27.9261 28.9067 27.0061 29 26.0194 29C23.8594 29 22.2994 28.56 21.3394 27.68C20.4061 26.8 19.9394 25.48 19.9394 23.72V13.44H17.0594V10H19.9394V4.08H24.6194V10H29.8594V13.44Z" fill="#94A3B8"/>
<path d="M48.7385 19.36C48.7385 20.9333 48.4852 22.3467 47.9785 23.6C47.4985 24.8533 46.8185 25.9067 45.9385 26.76C45.0585 27.6133 44.0318 28.2667 42.8585 28.72C41.6852 29.1733 40.4185 29.4 39.0585 29.4C37.6985 29.4 36.4318 29.1867 35.2585 28.76C34.1118 28.3333 33.1118 27.72 32.2585 26.92C31.4052 26.0933 30.7385 25.08 30.2585 23.88C29.7785 22.68 29.5385 21.3067 29.5385 19.76C29.5385 18.16 29.7785 16.7333 30.2585 15.48C30.7652 14.2 31.4585 13.1333 32.3385 12.28C33.2185 11.4267 34.2452 10.7733 35.4185 10.32C36.5918 9.86666 37.8585 9.64 39.2185 9.64C40.5785 9.64 41.8318 9.85333 42.9785 10.28C44.1518 10.68 45.1652 11.2933 46.0185 12.12C46.8718 12.9467 47.5385 13.96 48.0185 15.16C48.4985 16.36 48.7385 17.76 48.7385 19.36ZM43.8585 19.56C43.8585 18.4133 43.7252 17.44 43.4585 16.64C43.1918 15.8133 42.8318 15.1467 42.3785 14.64C41.9518 14.1333 41.4452 13.76 40.8585 13.52C40.2985 13.28 39.7118 13.16 39.0985 13.16C38.4852 13.16 37.8985 13.2667 37.3385 13.48C36.7785 13.6667 36.2852 14.0133 35.8585 14.52C35.4318 15 35.0852 15.6533 34.8185 16.48C34.5518 17.3067 34.4185 18.3333 34.4185 19.56C34.4185 20.68 34.5518 21.64 34.8185 22.44C35.0852 23.2133 35.4318 23.8667 35.8585 24.4C36.3118 24.9067 36.8185 25.28 37.3785 25.52C37.9652 25.76 38.5652 25.88 39.1785 25.88C39.7652 25.88 40.3385 25.7733 40.8985 25.56C41.4852 25.3467 41.9918 25 42.4185 24.52C42.8452 24.04 43.1918 23.4 43.4585 22.6C43.7252 21.7733 43.8585 20.76 43.8585 19.56Z" fill="#94A3B8"/>
<path d="M54.0088 29H49.2888V10H52.9688L53.5688 12.52C54.4755 11.6133 55.4488 10.9067 56.4888 10.4C57.5288 9.89333 58.6888 9.64 59.9688 9.64C62.0221 9.64 63.6088 10.2133 64.7288 11.36C65.8488 12.48 66.4088 14.08 66.4088 16.16V29H61.6888V16.72C61.6888 15.7067 61.4221 14.8933 60.8888 14.28C60.3821 13.64 59.6088 13.32 58.5688 13.32C57.7955 13.32 57.0088 13.5333 56.2088 13.96C55.4088 14.36 54.6755 14.9067 54.0088 15.6V29Z" fill="#94A3B8"/>
<path d="M84.6772 20.56H71.7572V20.72C71.7572 22.4533 72.2906 23.7467 73.3572 24.6C74.4506 25.4533 75.8772 25.88 77.6372 25.88C78.6772 25.88 79.5972 25.7867 80.3972 25.6C81.2239 25.4133 82.0106 25.16 82.7572 24.84L83.6772 28.16C82.9039 28.5067 81.9839 28.8 80.9172 29.04C79.8506 29.28 78.6106 29.4 77.1972 29.4C75.7839 29.4 74.4506 29.2133 73.1972 28.84C71.9706 28.4667 70.8906 27.88 69.9572 27.08C69.0239 26.28 68.2772 25.2667 67.7172 24.04C67.1839 22.8133 66.9172 21.3467 66.9172 19.64C66.9172 18.1467 67.1439 16.7867 67.5972 15.56C68.0506 14.3333 68.6906 13.28 69.5172 12.4C70.3439 11.52 71.3439 10.84 72.5172 10.36C73.6906 9.88 74.9839 9.64 76.3972 9.64C78.9306 9.64 80.9439 10.4133 82.4372 11.96C83.9306 13.5067 84.6772 15.6533 84.6772 18.4V20.56ZM79.8372 17.28C79.8372 16.72 79.7706 16.1867 79.6372 15.68C79.5039 15.1467 79.2906 14.68 78.9972 14.28C78.7039 13.88 78.3172 13.5733 77.8372 13.36C77.3839 13.12 76.8372 13 76.1972 13C74.9972 13 74.0106 13.4 73.2372 14.2C72.4639 15 71.9972 16.0533 71.8372 17.36L79.8372 17.28Z" fill="#94A3B8"/>
<path d="M91.2857 3.79999H100.366C101.752 3.79999 102.966 4 104.006 4.4C105.046 4.8 105.912 5.34666 106.606 6.04C107.326 6.73333 107.859 7.54666 108.206 8.48C108.579 9.41333 108.766 10.4267 108.766 11.52C108.766 12.5333 108.606 13.4267 108.286 14.2C107.992 14.9733 107.606 15.6533 107.126 16.24C106.646 16.8267 106.112 17.32 105.526 17.72C104.939 18.0933 104.366 18.4 103.806 18.64L110.166 29H104.606L99.3657 19.52H96.0457V29H91.2857V3.79999ZM96.0457 15.72H98.4857C100.006 15.72 101.259 15.4133 102.246 14.8C103.232 14.16 103.726 13.1067 103.726 11.64C103.726 10.3067 103.326 9.29333 102.526 8.59999C101.752 7.90666 100.606 7.56 99.0857 7.56H96.0457V15.72Z" fill="#94A3B8"/>
<path d="M127.403 19.36C127.403 20.9333 127.149 22.3467 126.643 23.6C126.163 24.8533 125.483 25.9067 124.603 26.76C123.723 27.6133 122.696 28.2667 121.523 28.72C120.349 29.1733 119.083 29.4 117.723 29.4C116.363 29.4 115.096 29.1867 113.923 28.76C112.776 28.3333 111.776 27.72 110.923 26.92C110.069 26.0933 109.403 25.08 108.923 23.88C108.443 22.68 108.203 21.3067 108.203 19.76C108.203 18.16 108.443 16.7333 108.923 15.48C109.429 14.2 110.123 13.1333 111.003 12.28C111.883 11.4267 112.909 10.7733 114.083 10.32C115.256 9.86666 116.523 9.64 117.883 9.64C119.243 9.64 120.496 9.85333 121.643 10.28C122.816 10.68 123.829 11.2933 124.683 12.12C125.536 12.9467 126.203 13.96 126.683 15.16C127.163 16.36 127.403 17.76 127.403 19.36ZM122.523 19.56C122.523 18.4133 122.389 17.44 122.123 16.64C121.856 15.8133 121.496 15.1467 121.043 14.64C120.616 14.1333 120.109 13.76 119.523 13.52C118.963 13.28 118.376 13.16 117.763 13.16C117.149 13.16 116.563 13.2667 116.003 13.48C115.443 13.6667 114.949 14.0133 114.523 14.52C114.096 15 113.749 15.6533 113.483 16.48C113.216 17.3067 113.083 18.3333 113.083 19.56C113.083 20.68 113.216 21.64 113.483 22.44C113.749 23.2133 114.096 23.8667 114.523 24.4C114.976 24.9067 115.483 25.28 116.043 25.52C116.629 25.76 117.229 25.88 117.843 25.88C118.429 25.88 119.003 25.7733 119.563 25.56C120.149 25.3467 120.656 25 121.083 24.52C121.509 24.04 121.856 23.4 122.123 22.6C122.389 21.7733 122.523 20.76 122.523 19.56Z" fill="#94A3B8"/>
<path d="M140.353 10H145.073V29H141.513L140.953 26.8H140.793C140.18 27.44 139.366 28.04 138.353 28.6C137.34 29.1333 136.073 29.4 134.553 29.4C132.553 29.4 130.953 28.84 129.753 27.72C128.553 26.6 127.953 24.92 127.953 22.68V10H132.673V22.2C132.673 23.5067 132.966 24.44 133.553 25C134.166 25.5333 134.94 25.8 135.873 25.8C136.86 25.8 137.713 25.6 138.433 25.2C139.18 24.7733 139.82 24.2533 140.353 23.64V10Z" fill="#94A3B8"/>
<path d="M146.821 29V0.519997H151.461V29H146.821Z" fill="#94A3B8"/>
<path d="M169.902 20.56H156.982V20.72C156.982 22.4533 157.516 23.7467 158.582 24.6C159.676 25.4533 161.102 25.88 162.862 25.88C163.902 25.88 164.822 25.7867 165.622 25.6C166.449 25.4133 167.236 25.16 167.982 24.84L168.902 28.16C168.129 28.5067 167.209 28.8 166.142 29.04C165.076 29.28 163.836 29.4 162.422 29.4C161.009 29.4 159.676 29.2133 158.422 28.84C157.196 28.4667 156.116 27.88 155.182 27.08C154.249 26.28 153.502 25.2667 152.942 24.04C152.409 22.8133 152.142 21.3467 152.142 19.64C152.142 18.1467 152.369 16.7867 152.822 15.56C153.276 14.3333 153.916 13.28 154.742 12.4C155.569 11.52 156.569 10.84 157.742 10.36C158.916 9.88 160.209 9.64 161.622 9.64C164.156 9.64 166.169 10.4133 167.662 11.96C169.156 13.5067 169.902 15.6533 169.902 18.4V20.56ZM165.062 17.28C165.062 16.72 164.996 16.1867 164.862 15.68C164.729 15.1467 164.516 14.68 164.222 14.28C163.929 13.88 163.542 13.5733 163.062 13.36C162.609 13.12 162.062 13 161.422 13C160.222 13 159.236 13.4 158.462 14.2C157.689 15 157.222 16.0533 157.062 17.36L165.062 17.28Z" fill="#94A3B8"/>
<path d="M181.289 13.44H176.049V22.96C176.049 23.8667 176.262 24.4933 176.689 24.84C177.142 25.16 177.716 25.32 178.409 25.32C178.942 25.32 179.502 25.2667 180.089 25.16C180.676 25.0533 181.169 24.9067 181.569 24.72L182.289 28.08C181.782 28.2933 181.089 28.5067 180.209 28.72C179.356 28.9067 178.436 29 177.449 29C175.289 29 173.729 28.56 172.769 27.68C171.836 26.8 171.369 25.48 171.369 23.72V13.44H168.489V10H171.369V4.08H176.049V10H181.289V13.44Z" fill="#94A3B8"/>
<path d="M192.538 13.44H187.298V22.96C187.298 23.8667 187.511 24.4933 187.938 24.84C188.391 25.16 188.964 25.32 189.658 25.32C190.191 25.32 190.751 25.2667 191.338 25.16C191.924 25.0533 192.418 24.9067 192.818 24.72L193.538 28.08C193.031 28.2933 192.338 28.5067 191.458 28.72C190.604 28.9067 189.684 29 188.698 29C186.538 29 184.978 28.56 184.018 27.68C183.084 26.8 182.618 25.48 182.618 23.72V13.44H179.738V10H182.618V4.08H187.298V10H192.538V13.44Z" fill="#94A3B8"/>
<path d="M209.937 20.56H197.017V20.72C197.017 22.4533 197.55 23.7467 198.617 24.6C199.71 25.4533 201.137 25.88 202.897 25.88C203.937 25.88 204.857 25.7867 205.657 25.6C206.483 25.4133 207.27 25.16 208.017 24.84L208.937 28.16C208.163 28.5067 207.243 28.8 206.177 29.04C205.11 29.28 203.87 29.4 202.457 29.4C201.043 29.4 199.71 29.2133 198.457 28.84C197.23 28.4667 196.15 27.88 195.217 27.08C194.283 26.28 193.537 25.2667 192.977 24.04C192.443 22.8133 192.177 21.3467 192.177 19.64C192.177 18.1467 192.403 16.7867 192.857 15.56C193.31 14.3333 193.95 13.28 194.777 12.4C195.603 11.52 196.603 10.84 197.777 10.36C198.95 9.88 200.243 9.64 201.657 9.64C204.19 9.64 206.203 10.4133 207.697 11.96C209.19 13.5067 209.937 15.6533 209.937 18.4V20.56ZM205.097 17.28C205.097 16.72 205.03 16.1867 204.897 15.68C204.763 15.1467 204.55 14.68 204.257 14.28C203.963 13.88 203.577 13.5733 203.097 13.36C202.643 13.12 202.097 13 201.457 13C200.257 13 199.27 13.4 198.497 14.2C197.723 15 197.257 16.0533 197.097 17.36L205.097 17.28Z" fill="#94A3B8"/>
<path d="M12.7201 6.4C14.2134 6.4 15.5601 6.54666 16.7601 6.84C17.9867 7.10666 19.1067 7.49333 20.1201 8L19.0001 11.76C17.9067 11.2267 16.8667 10.8267 15.8801 10.56C14.8934 10.2933 13.9201 10.16 12.9601 10.16C11.6001 10.16 10.5334 10.44 9.76005 11C9.01339 11.56 8.64005 12.32 8.64005 13.28C8.64005 14.2133 8.94672 14.9333 9.56005 15.44C10.2001 15.92 11.2134 16.3867 12.6001 16.84L15.0401 17.64C17.1201 18.3333 18.7067 19.2933 19.8001 20.52C20.8934 21.7467 21.4401 23.2 21.4401 24.88C21.4401 25.9733 21.2267 26.9733 20.8001 27.88C20.3734 28.7867 19.7601 29.5867 18.9601 30.28C18.1601 30.9467 17.1734 31.4667 16.0001 31.84C14.8534 32.2133 13.5467 32.4 12.0801 32.4C10.6401 32.4 9.24005 32.2667 7.88005 32C6.52005 31.7067 5.21339 31.2533 3.96005 30.64L5.08005 26.92C6.22672 27.48 7.34672 27.9067 8.44005 28.2C9.53339 28.4933 10.6801 28.64 11.8801 28.64C13.3201 28.64 14.4401 28.36 15.2401 27.8C16.0667 27.24 16.4801 26.4267 16.4801 25.36C16.4801 24.9867 16.4134 24.6267 16.2801 24.28C16.1467 23.9333 15.9067 23.6133 15.5601 23.32C15.2401 23 14.7867 22.7067 14.2001 22.44C13.6401 22.1467 12.9067 21.8533 12.0001 21.56L9.76005 20.8C7.92005 20.16 6.44005 19.32 5.32005 18.28C4.22672 17.2133 3.68005 15.72 3.68005 13.8C3.68005 11.5867 4.45339 9.8 6.00005 8.44C7.54672 7.08 9.78672 6.4 12.7201 6.4Z" fill="#64748B"/>
<path d="M32.8594 16.44H27.6194V25.96C27.6194 26.8667 27.8328 27.4933 28.2594 27.84C28.7128 28.16 29.2861 28.32 29.9794 28.32C30.5128 28.32 31.0728 28.2667 31.6594 28.16C32.2461 28.0533 32.7394 27.9067 33.1394 27.72L33.8594 31.08C33.3528 31.2933 32.6594 31.5067 31.7794 31.72C30.9261 31.9067 30.0061 32 29.0194 32C26.8594 32 25.2994 31.56 24.3394 30.68C23.4061 29.8 22.9394 28.48 22.9394 26.72V16.44H20.0594V13H22.9394V7.08H27.6194V13H32.8594V16.44Z" fill="#64748B"/>
<path d="M51.7385 22.36C51.7385 23.9333 51.4852 25.3467 50.9785 26.6C50.4985 27.8533 49.8185 28.9067 48.9385 29.76C48.0585 30.6133 47.0318 31.2667 45.8585 31.72C44.6852 32.1733 43.4185 32.4 42.0585 32.4C40.6985 32.4 39.4318 32.1867 38.2585 31.76C37.1118 31.3333 36.1118 30.72 35.2585 29.92C34.4052 29.0933 33.7385 28.08 33.2585 26.88C32.7785 25.68 32.5385 24.3067 32.5385 22.76C32.5385 21.16 32.7785 19.7333 33.2585 18.48C33.7652 17.2 34.4585 16.1333 35.3385 15.28C36.2185 14.4267 37.2452 13.7733 38.4185 13.32C39.5918 12.8667 40.8585 12.64 42.2185 12.64C43.5785 12.64 44.8318 12.8533 45.9785 13.28C47.1518 13.68 48.1652 14.2933 49.0185 15.12C49.8718 15.9467 50.5385 16.96 51.0185 18.16C51.4985 19.36 51.7385 20.76 51.7385 22.36ZM46.8585 22.56C46.8585 21.4133 46.7252 20.44 46.4585 19.64C46.1918 18.8133 45.8318 18.1467 45.3785 17.64C44.9518 17.1333 44.4452 16.76 43.8585 16.52C43.2985 16.28 42.7118 16.16 42.0985 16.16C41.4852 16.16 40.8985 16.2667 40.3385 16.48C39.7785 16.6667 39.2852 17.0133 38.8585 17.52C38.4318 18 38.0852 18.6533 37.8185 19.48C37.5518 20.3067 37.4185 21.3333 37.4185 22.56C37.4185 23.68 37.5518 24.64 37.8185 25.44C38.0852 26.2133 38.4318 26.8667 38.8585 27.4C39.3118 27.9067 39.8185 28.28 40.3785 28.52C40.9652 28.76 41.5652 28.88 42.1785 28.88C42.7652 28.88 43.3385 28.7733 43.8985 28.56C44.4852 28.3467 44.9918 28 45.4185 27.52C45.8452 27.04 46.1918 26.4 46.4585 25.6C46.7252 24.7733 46.8585 23.76 46.8585 22.56Z" fill="#64748B"/>
<path d="M57.0088 32H52.2888V13H55.9688L56.5688 15.52C57.4755 14.6133 58.4488 13.9067 59.4888 13.4C60.5288 12.8933 61.6888 12.64 62.9688 12.64C65.0221 12.64 66.6088 13.2133 67.7288 14.36C68.8488 15.48 69.4088 17.08 69.4088 19.16V32H64.6888V19.72C64.6888 18.7067 64.4221 17.8933 63.8888 17.28C63.3821 16.64 62.6088 16.32 61.5688 16.32C60.7955 16.32 60.0088 16.5333 59.2088 16.96C58.4088 17.36 57.6755 17.9067 57.0088 18.6V32Z" fill="#64748B"/>
<path d="M87.6772 23.56H74.7572V23.72C74.7572 25.4533 75.2906 26.7467 76.3572 27.6C77.4506 28.4533 78.8772 28.88 80.6372 28.88C81.6772 28.88 82.5972 28.7867 83.3972 28.6C84.2239 28.4133 85.0106 28.16 85.7572 27.84L86.6772 31.16C85.9039 31.5067 84.9839 31.8 83.9172 32.04C82.8506 32.28 81.6106 32.4 80.1972 32.4C78.7839 32.4 77.4506 32.2133 76.1972 31.84C74.9706 31.4667 73.8906 30.88 72.9572 30.08C72.0239 29.28 71.2772 28.2667 70.7172 27.04C70.1839 25.8133 69.9172 24.3467 69.9172 22.64C69.9172 21.1467 70.1439 19.7867 70.5972 18.56C71.0506 17.3333 71.6906 16.28 72.5172 15.4C73.3439 14.52 74.3439 13.84 75.5172 13.36C76.6906 12.88 77.9839 12.64 79.3972 12.64C81.9306 12.64 83.9439 13.4133 85.4372 14.96C86.9306 16.5067 87.6772 18.6533 87.6772 21.4V23.56ZM82.8372 20.28C82.8372 19.72 82.7706 19.1867 82.6372 18.68C82.5039 18.1467 82.2906 17.68 81.9972 17.28C81.7039 16.88 81.3172 16.5733 80.8372 16.36C80.3839 16.12 79.8372 16 79.1972 16C77.9972 16 77.0106 16.4 76.2372 17.2C75.4639 18 74.9972 19.0533 74.8372 20.36L82.8372 20.28Z" fill="#64748B"/>
<path d="M94.2857 6.79999H103.366C104.752 6.79999 105.966 7 107.006 7.4C108.046 7.8 108.912 8.34666 109.606 9.04C110.326 9.73333 110.859 10.5467 111.206 11.48C111.579 12.4133 111.766 13.4267 111.766 14.52C111.766 15.5333 111.606 16.4267 111.286 17.2C110.992 17.9733 110.606 18.6533 110.126 19.24C109.646 19.8267 109.112 20.32 108.526 20.72C107.939 21.0933 107.366 21.4 106.806 21.64L113.166 32H107.606L102.366 22.52H99.0457V32H94.2857V6.79999ZM99.0457 18.72H101.486C103.006 18.72 104.259 18.4133 105.246 17.8C106.232 17.16 106.726 16.1067 106.726 14.64C106.726 13.3067 106.326 12.2933 105.526 11.6C104.752 10.9067 103.606 10.56 102.086 10.56H99.0457V18.72Z" fill="#64748B"/>
<path d="M130.403 22.36C130.403 23.9333 130.149 25.3467 129.643 26.6C129.163 27.8533 128.483 28.9067 127.603 29.76C126.723 30.6133 125.696 31.2667 124.523 31.72C123.349 32.1733 122.083 32.4 120.723 32.4C119.363 32.4 118.096 32.1867 116.923 31.76C115.776 31.3333 114.776 30.72 113.923 29.92C113.069 29.0933 112.403 28.08 111.923 26.88C111.443 25.68 111.203 24.3067 111.203 22.76C111.203 21.16 111.443 19.7333 111.923 18.48C112.429 17.2 113.123 16.1333 114.003 15.28C114.883 14.4267 115.909 13.7733 117.083 13.32C118.256 12.8667 119.523 12.64 120.883 12.64C122.243 12.64 123.496 12.8533 124.643 13.28C125.816 13.68 126.829 14.2933 127.683 15.12C128.536 15.9467 129.203 16.96 129.683 18.16C130.163 19.36 130.403 20.76 130.403 22.36ZM125.523 22.56C125.523 21.4133 125.389 20.44 125.123 19.64C124.856 18.8133 124.496 18.1467 124.043 17.64C123.616 17.1333 123.109 16.76 122.523 16.52C121.963 16.28 121.376 16.16 120.763 16.16C120.149 16.16 119.563 16.2667 119.003 16.48C118.443 16.6667 117.949 17.0133 117.523 17.52C117.096 18 116.749 18.6533 116.483 19.48C116.216 20.3067 116.083 21.3333 116.083 22.56C116.083 23.68 116.216 24.64 116.483 25.44C116.749 26.2133 117.096 26.8667 117.523 27.4C117.976 27.9067 118.483 28.28 119.043 28.52C119.629 28.76 120.229 28.88 120.843 28.88C121.429 28.88 122.003 28.7733 122.563 28.56C123.149 28.3467 123.656 28 124.083 27.52C124.509 27.04 124.856 26.4 125.123 25.6C125.389 24.7733 125.523 23.76 125.523 22.56Z" fill="#64748B"/>
<path d="M143.353 13H148.073V32H144.513L143.953 29.8H143.793C143.18 30.44 142.366 31.04 141.353 31.6C140.34 32.1333 139.073 32.4 137.553 32.4C135.553 32.4 133.953 31.84 132.753 30.72C131.553 29.6 130.953 27.92 130.953 25.68V13H135.673V25.2C135.673 26.5067 135.966 27.44 136.553 28C137.166 28.5333 137.94 28.8 138.873 28.8C139.86 28.8 140.713 28.6 141.433 28.2C142.18 27.7733 142.82 27.2533 143.353 26.64V13Z" fill="#64748B"/>
<path d="M149.821 32V3.52H154.461V32H149.821Z" fill="#64748B"/>
<path d="M172.902 23.56H159.982V23.72C159.982 25.4533 160.516 26.7467 161.582 27.6C162.676 28.4533 164.102 28.88 165.862 28.88C166.902 28.88 167.822 28.7867 168.622 28.6C169.449 28.4133 170.236 28.16 170.982 27.84L171.902 31.16C171.129 31.5067 170.209 31.8 169.142 32.04C168.076 32.28 166.836 32.4 165.422 32.4C164.009 32.4 162.676 32.2133 161.422 31.84C160.196 31.4667 159.116 30.88 158.182 30.08C157.249 29.28 156.502 28.2667 155.942 27.04C155.409 25.8133 155.142 24.3467 155.142 22.64C155.142 21.1467 155.369 19.7867 155.822 18.56C156.276 17.3333 156.916 16.28 157.742 15.4C158.569 14.52 159.569 13.84 160.742 13.36C161.916 12.88 163.209 12.64 164.622 12.64C167.156 12.64 169.169 13.4133 170.662 14.96C172.156 16.5067 172.902 18.6533 172.902 21.4V23.56ZM168.062 20.28C168.062 19.72 167.996 19.1867 167.862 18.68C167.729 18.1467 167.516 17.68 167.222 17.28C166.929 16.88 166.542 16.5733 166.062 16.36C165.609 16.12 165.062 16 164.422 16C163.222 16 162.236 16.4 161.462 17.2C160.689 18 160.222 19.0533 160.062 20.36L168.062 20.28Z" fill="#64748B"/>
<path d="M184.289 16.44H179.049V25.96C179.049 26.8667 179.262 27.4933 179.689 27.84C180.142 28.16 180.716 28.32 181.409 28.32C181.942 28.32 182.502 28.2667 183.089 28.16C183.676 28.0533 184.169 27.9067 184.569 27.72L185.289 31.08C184.782 31.2933 184.089 31.5067 183.209 31.72C182.356 31.9067 181.436 32 180.449 32C178.289 32 176.729 31.56 175.769 30.68C174.836 29.8 174.369 28.48 174.369 26.72V16.44H171.489V13H174.369V7.08H179.049V13H184.289V16.44Z" fill="#64748B"/>
<path d="M195.538 16.44H190.298V25.96C190.298 26.8667 190.511 27.4933 190.938 27.84C191.391 28.16 191.964 28.32 192.658 28.32C193.191 28.32 193.751 28.2667 194.338 28.16C194.924 28.0533 195.418 27.9067 195.818 27.72L196.538 31.08C196.031 31.2933 195.338 31.5067 194.458 31.72C193.604 31.9067 192.684 32 191.698 32C189.538 32 187.978 31.56 187.018 30.68C186.084 29.8 185.618 28.48 185.618 26.72V16.44H182.738V13H185.618V7.08H190.298V13H195.538V16.44Z" fill="#64748B"/>
<path d="M212.937 23.56H200.017V23.72C200.017 25.4533 200.55 26.7467 201.617 27.6C202.71 28.4533 204.137 28.88 205.897 28.88C206.937 28.88 207.857 28.7867 208.657 28.6C209.483 28.4133 210.27 28.16 211.017 27.84L211.937 31.16C211.163 31.5067 210.243 31.8 209.177 32.04C208.11 32.28 206.87 32.4 205.457 32.4C204.043 32.4 202.71 32.2133 201.457 31.84C200.23 31.4667 199.15 30.88 198.217 30.08C197.283 29.28 196.537 28.2667 195.977 27.04C195.443 25.8133 195.177 24.3467 195.177 22.64C195.177 21.1467 195.403 19.7867 195.857 18.56C196.31 17.3333 196.95 16.28 197.777 15.4C198.603 14.52 199.603 13.84 200.777 13.36C201.95 12.88 203.243 12.64 204.657 12.64C207.19 12.64 209.203 13.4133 210.697 14.96C212.19 16.5067 212.937 18.6533 212.937 21.4V23.56ZM208.097 20.28C208.097 19.72 208.03 19.1867 207.897 18.68C207.763 18.1467 207.55 17.68 207.257 17.28C206.963 16.88 206.577 16.5733 206.097 16.36C205.643 16.12 205.097 16 204.457 16C203.257 16 202.27 16.4 201.497 17.2C200.723 18 200.257 19.0533 200.097 20.36L208.097 20.28Z" fill="#64748B"/>
<path d="M9.72005 6.4C11.2134 6.4 12.5601 6.54666 13.7601 6.84C14.9867 7.10666 16.1067 7.49333 17.1201 8L16.0001 11.76C14.9067 11.2267 13.8667 10.8267 12.8801 10.56C11.8934 10.2933 10.9201 10.16 9.96005 10.16C8.60005 10.16 7.53339 10.44 6.76005 11C6.01339 11.56 5.64005 12.32 5.64005 13.28C5.64005 14.2133 5.94672 14.9333 6.56005 15.44C7.20005 15.92 8.21339 16.3867 9.60005 16.84L12.0401 17.64C14.1201 18.3333 15.7067 19.2933 16.8001 20.52C17.8934 21.7467 18.4401 23.2 18.4401 24.88C18.4401 25.9733 18.2267 26.9733 17.8001 27.88C17.3734 28.7867 16.7601 29.5867 15.9601 30.28C15.1601 30.9467 14.1734 31.4667 13.0001 31.84C11.8534 32.2133 10.5467 32.4 9.08005 32.4C7.64005 32.4 6.24005 32.2667 4.88005 32C3.52005 31.7067 2.21339 31.2533 0.960054 30.64L2.08005 26.92C3.22672 27.48 4.34672 27.9067 5.44005 28.2C6.53339 28.4933 7.68005 28.64 8.88005 28.64C10.3201 28.64 11.4401 28.36 12.2401 27.8C13.0667 27.24 13.4801 26.4267 13.4801 25.36C13.4801 24.9867 13.4134 24.6267 13.2801 24.28C13.1467 23.9333 12.9067 23.6133 12.5601 23.32C12.2401 23 11.7867 22.7067 11.2001 22.44C10.6401 22.1467 9.90672 21.8533 9.00005 21.56L6.76005 20.8C4.92005 20.16 3.44005 19.32 2.32005 18.28C1.22672 17.2133 0.680054 15.72 0.680054 13.8C0.680054 11.5867 1.45339 9.8 3.00005 8.44C4.54672 7.08 6.78672 6.4 9.72005 6.4Z" fill="#475569"/>
<path d="M29.8594 16.44H24.6194V25.96C24.6194 26.8667 24.8328 27.4933 25.2594 27.84C25.7128 28.16 26.2861 28.32 26.9794 28.32C27.5128 28.32 28.0728 28.2667 28.6594 28.16C29.2461 28.0533 29.7394 27.9067 30.1394 27.72L30.8594 31.08C30.3528 31.2933 29.6594 31.5067 28.7794 31.72C27.9261 31.9067 27.0061 32 26.0194 32C23.8594 32 22.2994 31.56 21.3394 30.68C20.4061 29.8 19.9394 28.48 19.9394 26.72V16.44H17.0594V13H19.9394V7.08H24.6194V13H29.8594V16.44Z" fill="#475569"/>
<path d="M48.7385 22.36C48.7385 23.9333 48.4852 25.3467 47.9785 26.6C47.4985 27.8533 46.8185 28.9067 45.9385 29.76C45.0585 30.6133 44.0318 31.2667 42.8585 31.72C41.6852 32.1733 40.4185 32.4 39.0585 32.4C37.6985 32.4 36.4318 32.1867 35.2585 31.76C34.1118 31.3333 33.1118 30.72 32.2585 29.92C31.4052 29.0933 30.7385 28.08 30.2585 26.88C29.7785 25.68 29.5385 24.3067 29.5385 22.76C29.5385 21.16 29.7785 19.7333 30.2585 18.48C30.7652 17.2 31.4585 16.1333 32.3385 15.28C33.2185 14.4267 34.2452 13.7733 35.4185 13.32C36.5918 12.8667 37.8585 12.64 39.2185 12.64C40.5785 12.64 41.8318 12.8533 42.9785 13.28C44.1518 13.68 45.1652 14.2933 46.0185 15.12C46.8718 15.9467 47.5385 16.96 48.0185 18.16C48.4985 19.36 48.7385 20.76 48.7385 22.36ZM43.8585 22.56C43.8585 21.4133 43.7252 20.44 43.4585 19.64C43.1918 18.8133 42.8318 18.1467 42.3785 17.64C41.9518 17.1333 41.4452 16.76 40.8585 16.52C40.2985 16.28 39.7118 16.16 39.0985 16.16C38.4852 16.16 37.8985 16.2667 37.3385 16.48C36.7785 16.6667 36.2852 17.0133 35.8585 17.52C35.4318 18 35.0852 18.6533 34.8185 19.48C34.5518 20.3067 34.4185 21.3333 34.4185 22.56C34.4185 23.68 34.5518 24.64 34.8185 25.44C35.0852 26.2133 35.4318 26.8667 35.8585 27.4C36.3118 27.9067 36.8185 28.28 37.3785 28.52C37.9652 28.76 38.5652 28.88 39.1785 28.88C39.7652 28.88 40.3385 28.7733 40.8985 28.56C41.4852 28.3467 41.9918 28 42.4185 27.52C42.8452 27.04 43.1918 26.4 43.4585 25.6C43.7252 24.7733 43.8585 23.76 43.8585 22.56Z" fill="#475569"/>
<path d="M54.0088 32H49.2888V13H52.9688L53.5688 15.52C54.4755 14.6133 55.4488 13.9067 56.4888 13.4C57.5288 12.8933 58.6888 12.64 59.9688 12.64C62.0221 12.64 63.6088 13.2133 64.7288 14.36C65.8488 15.48 66.4088 17.08 66.4088 19.16V32H61.6888V19.72C61.6888 18.7067 61.4221 17.8933 60.8888 17.28C60.3821 16.64 59.6088 16.32 58.5688 16.32C57.7955 16.32 57.0088 16.5333 56.2088 16.96C55.4088 17.36 54.6755 17.9067 54.0088 18.6V32Z" fill="#475569"/>
<path d="M84.6772 23.56H71.7572V23.72C71.7572 25.4533 72.2906 26.7467 73.3572 27.6C74.4506 28.4533 75.8772 28.88 77.6372 28.88C78.6772 28.88 79.5972 28.7867 80.3972 28.6C81.2239 28.4133 82.0106 28.16 82.7572 27.84L83.6772 31.16C82.9039 31.5067 81.9839 31.8 80.9172 32.04C79.8506 32.28 78.6106 32.4 77.1972 32.4C75.7839 32.4 74.4506 32.2133 73.1972 31.84C71.9706 31.4667 70.8906 30.88 69.9572 30.08C69.0239 29.28 68.2772 28.2667 67.7172 27.04C67.1839 25.8133 66.9172 24.3467 66.9172 22.64C66.9172 21.1467 67.1439 19.7867 67.5972 18.56C68.0506 17.3333 68.6906 16.28 69.5172 15.4C70.3439 14.52 71.3439 13.84 72.5172 13.36C73.6906 12.88 74.9839 12.64 76.3972 12.64C78.9306 12.64 80.9439 13.4133 82.4372 14.96C83.9306 16.5067 84.6772 18.6533 84.6772 21.4V23.56ZM79.8372 20.28C79.8372 19.72 79.7706 19.1867 79.6372 18.68C79.5039 18.1467 79.2906 17.68 78.9972 17.28C78.7039 16.88 78.3172 16.5733 77.8372 16.36C77.3839 16.12 76.8372 16 76.1972 16C74.9972 16 74.0106 16.4 73.2372 17.2C72.4639 18 71.9972 19.0533 71.8372 20.36L79.8372 20.28Z" fill="#475569"/>
<path d="M91.2857 6.79999H100.366C101.752 6.79999 102.966 7 104.006 7.4C105.046 7.8 105.912 8.34666 106.606 9.04C107.326 9.73333 107.859 10.5467 108.206 11.48C108.579 12.4133 108.766 13.4267 108.766 14.52C108.766 15.5333 108.606 16.4267 108.286 17.2C107.992 17.9733 107.606 18.6533 107.126 19.24C106.646 19.8267 106.112 20.32 105.526 20.72C104.939 21.0933 104.366 21.4 103.806 21.64L110.166 32H104.606L99.3657 22.52H96.0457V32H91.2857V6.79999ZM96.0457 18.72H98.4857C100.006 18.72 101.259 18.4133 102.246 17.8C103.232 17.16 103.726 16.1067 103.726 14.64C103.726 13.3067 103.326 12.2933 102.526 11.6C101.752 10.9067 100.606 10.56 99.0857 10.56H96.0457V18.72Z" fill="#475569"/>
<path d="M127.403 22.36C127.403 23.9333 127.149 25.3467 126.643 26.6C126.163 27.8533 125.483 28.9067 124.603 29.76C123.723 30.6133 122.696 31.2667 121.523 31.72C120.349 32.1733 119.083 32.4 117.723 32.4C116.363 32.4 115.096 32.1867 113.923 31.76C112.776 31.3333 111.776 30.72 110.923 29.92C110.069 29.0933 109.403 28.08 108.923 26.88C108.443 25.68 108.203 24.3067 108.203 22.76C108.203 21.16 108.443 19.7333 108.923 18.48C109.429 17.2 110.123 16.1333 111.003 15.28C111.883 14.4267 112.909 13.7733 114.083 13.32C115.256 12.8667 116.523 12.64 117.883 12.64C119.243 12.64 120.496 12.8533 121.643 13.28C122.816 13.68 123.829 14.2933 124.683 15.12C125.536 15.9467 126.203 16.96 126.683 18.16C127.163 19.36 127.403 20.76 127.403 22.36ZM122.523 22.56C122.523 21.4133 122.389 20.44 122.123 19.64C121.856 18.8133 121.496 18.1467 121.043 17.64C120.616 17.1333 120.109 16.76 119.523 16.52C118.963 16.28 118.376 16.16 117.763 16.16C117.149 16.16 116.563 16.2667 116.003 16.48C115.443 16.6667 114.949 17.0133 114.523 17.52C114.096 18 113.749 18.6533 113.483 19.48C113.216 20.3067 113.083 21.3333 113.083 22.56C113.083 23.68 113.216 24.64 113.483 25.44C113.749 26.2133 114.096 26.8667 114.523 27.4C114.976 27.9067 115.483 28.28 116.043 28.52C116.629 28.76 117.229 28.88 117.843 28.88C118.429 28.88 119.003 28.7733 119.563 28.56C120.149 28.3467 120.656 28 121.083 27.52C121.509 27.04 121.856 26.4 122.123 25.6C122.389 24.7733 122.523 23.76 122.523 22.56Z" fill="#475569"/>
<path d="M140.353 13H145.073V32H141.513L140.953 29.8H140.793C140.18 30.44 139.366 31.04 138.353 31.6C137.34 32.1333 136.073 32.4 134.553 32.4C132.553 32.4 130.953 31.84 129.753 30.72C128.553 29.6 127.953 27.92 127.953 25.68V13H132.673V25.2C132.673 26.5067 132.966 27.44 133.553 28C134.166 28.5333 134.94 28.8 135.873 28.8C136.86 28.8 137.713 28.6 138.433 28.2C139.18 27.7733 139.82 27.2533 140.353 26.64V13Z" fill="#475569"/>
<path d="M146.821 32V3.52H151.461V32H146.821Z" fill="#475569"/>
<path d="M169.902 23.56H156.982V23.72C156.982 25.4533 157.516 26.7467 158.582 27.6C159.676 28.4533 161.102 28.88 162.862 28.88C163.902 28.88 164.822 28.7867 165.622 28.6C166.449 28.4133 167.236 28.16 167.982 27.84L168.902 31.16C168.129 31.5067 167.209 31.8 166.142 32.04C165.076 32.28 163.836 32.4 162.422 32.4C161.009 32.4 159.676 32.2133 158.422 31.84C157.196 31.4667 156.116 30.88 155.182 30.08C154.249 29.28 153.502 28.2667 152.942 27.04C152.409 25.8133 152.142 24.3467 152.142 22.64C152.142 21.1467 152.369 19.7867 152.822 18.56C153.276 17.3333 153.916 16.28 154.742 15.4C155.569 14.52 156.569 13.84 157.742 13.36C158.916 12.88 160.209 12.64 161.622 12.64C164.156 12.64 166.169 13.4133 167.662 14.96C169.156 16.5067 169.902 18.6533 169.902 21.4V23.56ZM165.062 20.28C165.062 19.72 164.996 19.1867 164.862 18.68C164.729 18.1467 164.516 17.68 164.222 17.28C163.929 16.88 163.542 16.5733 163.062 16.36C162.609 16.12 162.062 16 161.422 16C160.222 16 159.236 16.4 158.462 17.2C157.689 18 157.222 19.0533 157.062 20.36L165.062 20.28Z" fill="#475569"/>
<path d="M181.289 16.44H176.049V25.96C176.049 26.8667 176.262 27.4933 176.689 27.84C177.142 28.16 177.716 28.32 178.409 28.32C178.942 28.32 179.502 28.2667 180.089 28.16C180.676 28.0533 181.169 27.9067 181.569 27.72L182.289 31.08C181.782 31.2933 181.089 31.5067 180.209 31.72C179.356 31.9067 178.436 32 177.449 32C175.289 32 173.729 31.56 172.769 30.68C171.836 29.8 171.369 28.48 171.369 26.72V16.44H168.489V13H171.369V7.08H176.049V13H181.289V16.44Z" fill="#475569"/>
<path d="M192.538 16.44H187.298V25.96C187.298 26.8667 187.511 27.4933 187.938 27.84C188.391 28.16 188.964 28.32 189.658 28.32C190.191 28.32 190.751 28.2667 191.338 28.16C191.924 28.0533 192.418 27.9067 192.818 27.72L193.538 31.08C193.031 31.2933 192.338 31.5067 191.458 31.72C190.604 31.9067 189.684 32 188.698 32C186.538 32 184.978 31.56 184.018 30.68C183.084 29.8 182.618 28.48 182.618 26.72V16.44H179.738V13H182.618V7.08H187.298V13H192.538V16.44Z" fill="#475569"/>
<path d="M209.937 23.56H197.017V23.72C197.017 25.4533 197.55 26.7467 198.617 27.6C199.71 28.4533 201.137 28.88 202.897 28.88C203.937 28.88 204.857 28.7867 205.657 28.6C206.483 28.4133 207.27 28.16 208.017 27.84L208.937 31.16C208.163 31.5067 207.243 31.8 206.177 32.04C205.11 32.28 203.87 32.4 202.457 32.4C201.043 32.4 199.71 32.2133 198.457 31.84C197.23 31.4667 196.15 30.88 195.217 30.08C194.283 29.28 193.537 28.2667 192.977 27.04C192.443 25.8133 192.177 24.3467 192.177 22.64C192.177 21.1467 192.403 19.7867 192.857 18.56C193.31 17.3333 193.95 16.28 194.777 15.4C195.603 14.52 196.603 13.84 197.777 13.36C198.95 12.88 200.243 12.64 201.657 12.64C204.19 12.64 206.203 13.4133 207.697 14.96C209.19 16.5067 209.937 18.6533 209.937 21.4V23.56ZM205.097 20.28C205.097 19.72 205.03 19.1867 204.897 18.68C204.763 18.1467 204.55 17.68 204.257 17.28C203.963 16.88 203.577 16.5733 203.097 16.36C202.643 16.12 202.097 16 201.457 16C200.257 16 199.27 16.4 198.497 17.2C197.723 18 197.257 19.0533 197.097 20.36L205.097 20.28Z" fill="#475569"/>
</svg>
